<svg xmlns="http://www.w3.org/2000/svg" viewBox="0 0 24.03 24.57"><defs><style>.cls-1{fill:#fff;}</style></defs><g id="Capa_2" data-name="Capa 2"><g id="Capa_1-2" data-name="Capa 1"><path class="cls-1" d="M22,24.57H2l-.32-.07A2.21,2.21,0,0,1,0,22.22Q0,13.66,0,5.07a3,3,0,0,1,.14-.89,2.11,2.11,0,0,1,2-1.41V5.62A2.43,2.43,0,0,0,4.6,8.13c.49,0,1,0,1.48,0A2.44,2.44,0,0,0,8.55,5.59c0-.86,0-1.72,0-2.59V2.75h6.92V5.57A2.45,2.45,0,0,0,18,8.13h1.37a2.43,2.43,0,0,0,2.51-2.54V2.69a6,6,0,0,1,.93.3A2.21,2.21,0,0,1,24,5.12q0,8.52,0,17.06c0,.13,0,.27,0,.4A2.18,2.18,0,0,1,23.27,24,2.42,2.42,0,0,1,22,24.57ZM12,22.22h8.07a1,1,0,0,0,1.13-1.13V12.46a1,1,0,0,0-1.13-1.13H4c-.79,0-1.15.35-1.15,1.14v8.61a1,1,0,0,0,1.14,1.14Z"/><path class="cls-1" d="M17.06,3.28V1a.87.87,0,0,1,1-1h1.31a.83.83,0,0,1,.9.88c0,1.6,0,3.2,0,4.79a.82.82,0,0,1-.88.87H18a.84.84,0,0,1-.92-.91Z"/><path class="cls-1" d="M6.92,3.29V5.57a.86.86,0,0,1-1,1H4.63a.83.83,0,0,1-.9-.9c0-.87,0-1.73,0-2.59,0-.69,0-1.38,0-2.06a.86.86,0,0,1,1-1H6a.85.85,0,0,1,.91.92Z"/><path class="cls-1" d="M12,13h.88a.57.57,0,0,1,.63.63q0,.9,0,1.8a.56.56,0,0,1-.59.63c-.63,0-1.25,0-1.87,0a.56.56,0,0,1-.6-.64q0-.88,0-1.77c0-.43.22-.64.66-.65Z"/><path class="cls-1" d="M12,20.93h-.89a.58.58,0,0,1-.64-.64q0-.88,0-1.77a.59.59,0,0,1,.64-.65h1.8a.58.58,0,0,1,.62.64c0,.59,0,1.19,0,1.79a.58.58,0,0,1-.65.64Z"/><path class="cls-1" d="M7.16,13h.89a.56.56,0,0,1,.62.6c0,.62,0,1.23,0,1.85a.54.54,0,0,1-.59.61c-.62,0-1.24,0-1.87,0a.55.55,0,0,1-.59-.63v-1.8A.57.57,0,0,1,6.25,13Z"/><path class="cls-1" d="M18.4,14.53c0,.3,0,.59,0,.89s-.19.63-.58.64c-.63,0-1.25,0-1.87,0a.55.55,0,0,1-.6-.61c0-.61,0-1.23,0-1.84A.57.57,0,0,1,16,13h1.8a.57.57,0,0,1,.63.65v.88Z"/><path class="cls-1" d="M5.62,19.4v-.91a.56.56,0,0,1,.61-.62c.61,0,1.23,0,1.84,0a.55.55,0,0,1,.6.6c0,.61,0,1.23,0,1.85a.56.56,0,0,1-.64.6H6.26a.57.57,0,0,1-.64-.63Z"/><path class="cls-1" d="M18.4,19.4c0,.3,0,.6,0,.91a.56.56,0,0,1-.61.61H16a.56.56,0,0,1-.62-.6c0-.62,0-1.23,0-1.85a.57.57,0,0,1,.62-.61c.61,0,1.22,0,1.82,0a.55.55,0,0,1,.61.61C18.41,18.79,18.4,19.09,18.4,19.4Z"/></g></g></svg>