<svg xmlns="http://www.w3.org/2000/svg" viewBox="0 0 163.84 16.59"><defs><style>.cls-1{fill:#fff;}</style></defs><g id="Capa_2" data-name="Capa 2"><g id="Capa_1-2" data-name="Capa 1"><path class="cls-1" d="M7.73,16.5C2.86,16.5,0,12.86,0,8.32S2.86,0,7.73,0c3.3,0,6.09,1.83,6.72,5.14a.43.43,0,0,1-.41.51H11.52a.41.41,0,0,1-.41-.29A3.44,3.44,0,0,0,7.73,2.92c-3.1,0-4.27,2.64-4.27,5.4s1.17,5.27,4.27,5.27a3.47,3.47,0,0,0,3.52-3.17.41.41,0,0,1,.42-.36h2.52a.42.42,0,0,1,.41.47A6.6,6.6,0,0,1,7.73,16.5Z"/><path class="cls-1" d="M47.46,15.7a.41.41,0,0,1-.41.42H44.24a.41.41,0,0,1-.36-.19L37.45,5.59h0V15.7a.42.42,0,0,1-.42.42h-2.4a.42.42,0,0,1-.42-.42V.8a.42.42,0,0,1,.42-.42h2.78a.42.42,0,0,1,.36.2l6.45,10.36h0V.8a.42.42,0,0,1,.42-.42h2.41a.41.41,0,0,1,.41.42Z"/><path class="cls-1" d="M56.21,16.5c-3.35,0-6.49-1.6-6.69-5.17a.42.42,0,0,1,.42-.43h2.53a.41.41,0,0,1,.41.36c.19,1.83,1.73,2.55,3.47,2.55,1.21,0,3.06-.35,3.06-2s-2.36-2-4.66-2.6-4.7-1.52-4.7-4.48c0-3.22,3-4.76,5.88-4.76C59.08,0,62,1.32,62.22,4.64a.42.42,0,0,1-.42.44H59.26a.41.41,0,0,1-.41-.35c-.25-1.6-1.53-2-3.07-2-1.11,0-2.38.46-2.38,1.78s.74,1.37,4.68,2.38c1.15.29,4.68,1,4.68,4.59C62.76,14.34,60.49,16.5,56.21,16.5Z"/><path class="cls-1" d="M76.47,2.87a.42.42,0,0,1-.41.43H72.18a.41.41,0,0,0-.42.41v12a.42.42,0,0,1-.42.42H68.72a.42.42,0,0,1-.43-.42v-12a.41.41,0,0,0-.42-.41H64a.42.42,0,0,1-.42-.43V.8A.42.42,0,0,1,64,.38H76.06a.42.42,0,0,1,.41.42Z"/><path class="cls-1" d="M100.84,16.5c-4.24,0-6.7-2.05-6.7-6.32V.8a.42.42,0,0,1,.41-.42h2.63a.42.42,0,0,1,.41.42v9.38c0,1.71.45,3.41,3.25,3.41,2.46,0,3.26-1.08,3.26-3.41V.8a.42.42,0,0,1,.42-.42h2.62a.42.42,0,0,1,.42.42v9.38C107.56,14.43,105.05,16.5,100.84,16.5Z"/><path class="cls-1" d="M111.64,16.21h-4.21l.88-.74a.44.44,0,0,1,.28-.1h3.15c3,0,6.31-1.62,6.31-7.1,0-6.47-4.16-7-6.52-7H108a.41.41,0,0,1-.41-.42A.41.41,0,0,1,108,.38h3.7c5.68,0,7.35,3.88,7.35,7.89C119,12.75,116.74,16.21,111.64,16.21Z"/><path class="cls-1" d="M131.7,16.21h-10a.41.41,0,0,1-.41-.42V.8a.41.41,0,0,1,.41-.42h9.85a.42.42,0,0,1,0,.84h-8.87a.41.41,0,0,0-.41.42V7.15a.42.42,0,0,0,.41.42H131a.41.41,0,0,1,.42.42h0a.42.42,0,0,1-.42.42h-8.28a.41.41,0,0,0-.41.42V15a.41.41,0,0,0,.41.42h9a.42.42,0,0,1,0,.84Z"/><path class="cls-1" d="M140.75,16.59c-4.76,0-7.57-3.66-7.57-8.3S136,0,140.75,0A6,6,0,0,1,147,4.57a.42.42,0,0,1-.4.53h-.13a.41.41,0,0,1-.4-.34A5.25,5.25,0,0,0,140.75.85c-4.16,0-6.59,3.38-6.59,7.44s2.43,7.45,6.59,7.45a6,6,0,0,0,5.64-5.31.41.41,0,0,1,.41-.39h.12a.42.42,0,0,1,.42.48A6.78,6.78,0,0,1,140.75,16.59Z"/><path class="cls-1" d="M156.3,0c-4.76,0-7.57,3.66-7.57,8.29s2.81,8.29,7.57,8.29,7.54-3.65,7.54-8.29S161.05,0,156.3,0Zm0,15.74c-4.15,0-6.58-3.39-6.58-7.45S152.15.85,156.3.85s6.57,3.39,6.57,7.44S160.45,15.74,156.3,15.74Z"/><path class="cls-1" d="M24.08,0c-4.87,0-7.75,3.63-7.75,8.31s2.88,8.18,7.75,8.18,7.73-3.64,7.73-8.18S29,0,24.08,0Zm0,13.58c-3.12,0-4.29-2.65-4.29-5.27s1.17-5.4,4.29-5.4,4.26,2.65,4.26,5.4S27.18,13.59,24.08,13.59Z"/><path class="cls-1" d="M91.18,12.4c-.12-1.59-.6-3.24-2.3-3.69v0a3.87,3.87,0,0,0,2.5-3.94A4.33,4.33,0,0,0,86.77.38H78.7a.42.42,0,0,0-.42.42V15.7a.42.42,0,0,0,.42.42h2.62a.42.42,0,0,0,.43-.42V10.39a.42.42,0,0,1,.41-.42h3c1.75,0,2.38.73,2.63,2.38a24.55,24.55,0,0,0,.45,3.5.41.41,0,0,0,.39.27h2.5a.41.41,0,0,0,.39-.56A13,13,0,0,1,91.18,12.4ZM85.54,7.5H82.16a.42.42,0,0,1-.41-.42V3.49a.42.42,0,0,1,.41-.42h3.38c1.53,0,2.37.66,2.37,2.19S87.07,7.5,85.54,7.5Z"/></g></g></svg>