<svg xmlns="http://www.w3.org/2000/svg" viewBox="0 0 59.38 29.69"><defs><style>.cls-1{fill:#f17327;}.cls-2{fill:#93bb30;}.cls-3{fill:#c50b6f;}</style></defs><g id="Capa_2" data-name="Capa 2"><g id="Capa_1-2" data-name="Capa 1"><path class="cls-1" d="M29.69,14.84A14.85,14.85,0,0,1,14.84,29.69h0A14.85,14.85,0,0,1,0,14.84Z"/><path class="cls-2" d="M29.69,0A14.84,14.84,0,0,1,14.84,14.84h0A14.84,14.84,0,0,1,0,0Z"/><path class="cls-3" d="M44.53,0h0A14.84,14.84,0,0,0,29.69,14.84h0A14.84,14.84,0,0,0,44.53,29.69h0A14.85,14.85,0,0,0,59.38,14.84h0A14.85,14.85,0,0,0,44.53,0Zm0,6.33a8.52,8.52,0,0,1,8.52,8.51h0a8.52,8.52,0,1,1-17,0h0A8.51,8.51,0,0,1,44.53,6.33Z"/></g></g></svg>