<svg xmlns="http://www.w3.org/2000/svg" viewBox="0 0 34 34.01"><defs><style>.cls-1{fill:#fff;}</style></defs><g id="Capa_2" data-name="Capa 2"><g id="Capa_1-2" data-name="Capa 1"><path class="cls-1" d="M0,17A17,17,0,1,1,16.81,34,17,17,0,0,1,0,17Zm15.69-5.21c0,1.7,0,3.4,0,5.1A1.29,1.29,0,0,0,16.21,18c2.31,1.8,4.6,3.62,6.93,5.41a2.42,2.42,0,0,0,1.1.4A1.68,1.68,0,0,0,25.87,23a1.12,1.12,0,0,0-.41-1.53c-2-1.59-4.05-3.17-6.09-4.75a.8.8,0,0,1-.35-.68q0-4.63,0-9.27a1.9,1.9,0,0,0,0-.53,1.66,1.66,0,0,0-1.81-1A1.45,1.45,0,0,0,15.7,6.55C15.69,8.29,15.69,10,15.69,11.78Z"/></g></g></svg>