<svg xmlns="http://www.w3.org/2000/svg" viewBox="0 0 16.91 16.91"><defs><style>.cls-1{fill:#fff;}</style></defs><g id="Capa_2" data-name="Capa 2"><g id="Capa_1-2" data-name="Capa 1"><path class="cls-1" d="M15.16,15.15V8.49a.88.88,0,1,1,1.75,0v6.89a1.46,1.46,0,0,1-1.54,1.54H1.54A1.46,1.46,0,0,1,0,15.37V8.48A.87.87,0,0,1,.72,7.6a.85.85,0,0,1,1,.5,1.32,1.32,0,0,1,.08.44v6.61Z"/><path class="cls-1" d="M9.33,10.41l.15-.14,1.66-1.65a.87.87,0,0,1,1.42.28.85.85,0,0,1-.19,1l-1,1L9.16,13.07a.89.89,0,0,1-1.41,0L4.58,9.9A.88.88,0,1,1,5.79,8.63l1.64,1.64.15.14V.93A.88.88,0,0,1,9.33.82v9.59Z"/></g></g></svg>