<svg xmlns="http://www.w3.org/2000/svg" viewBox="0 0 335.37 240.02"><defs><style>.cls-1{fill:#fff;}</style></defs><g id="Capa_2" data-name="Capa 2"><g id="Capa_1-2" data-name="Capa 1"><path class="cls-1" d="M168.09,0H296.81c23.49,0,38.55,15.1,38.55,38.67q0,82.1,0,164.2c0,17.48-10.53,31.59-26.76,35.82A41.82,41.82,0,0,1,298.25,240q-130.59.09-261.17,0c-21.47,0-37-15.63-37-37.16Q0,120,0,37.13C.05,15.62,15.64,0,37.13,0Q102.6,0,168.09,0Zm-.31,24H37.6c-8.93,0-13.5,4.75-13.72,13.61-.07,2.81,1.21,3.88,3.33,5Q96.15,79.76,165,117c2.46,1.33,4.11.63,6.14-.48q26.61-14.43,53.27-28.78,42-22.62,83.91-45.21c2-1.06,3.22-2.06,3.17-4.74-.17-9-4.77-13.82-13.91-13.82ZM310,209.3c-2.58-1.83-4.9-3.5-7.24-5.14q-51.3-36-102.56-72c-2.53-1.78-4.34-1.86-7-.32-5.8,3.41-11.9,6.3-17.71,9.69-5.25,3.07-10.19,3.2-15.49.08-5.91-3.47-12.11-6.43-18-9.89-2.52-1.47-4.24-1.33-6.64.36Q82,169.67,28.51,207.08c-1,.71-2,1.48-3.05,2.29,2.61,4.86,6.62,6.66,11.75,6.65q37.41,0,74.83,0,92.59,0,185.2,0C302.63,216.05,307,214.61,310,209.3ZM24.15,68.18V180.85c30.41-21.32,60.38-42.35,90.8-63.69Zm196.33,49,90.73,63.63V68.22Z"/></g></g></svg>