<svg xmlns="http://www.w3.org/2000/svg" viewBox="0 0 377.92 378.28"><defs><style>.cls-1{fill:#fff;}</style></defs><g id="Capa_2" data-name="Capa 2"><g id="Capa_1-2" data-name="Capa 1"><path class="cls-1" d="M0,104.18c.55-4.37.86-8.79,1.71-13.1A54.62,54.62,0,0,1,16.32,63c10.15-10.39,20-21.21,30.88-30.72,16.65-14.48,34.71-14.41,50.73.6,17,16,33.4,32.76,49.33,49.86,11.85,12.71,11.74,32.18.27,45.25-8.52,9.69-17.91,18.62-27,27.75-1.73,1.73-2.17,2.86-1,5.24,9.16,18.54,22.09,34.29,36.08,49.26a248.78,248.78,0,0,0,47.86,40.36c5.06,3.22,10.47,5.89,16.1,9,6.09-6.17,12-12.26,18-18.21,4-4,8.07-8,12.41-11.57,12.85-10.68,32.34-10.85,44.39.65,17.62,16.81,34.88,34.05,51.59,51.77a34.19,34.19,0,0,1,.59,46.53,461.81,461.81,0,0,1-35.09,35.84c-12.91,11.7-29.07,14.74-46.18,13.29-32-2.71-60.48-15.7-88-31a363.75,363.75,0,0,1-90.31-70.75c-32.21-34.61-58.86-72.9-75.6-117.48C5.64,143.61,1.17,128.15.53,111.84A14.75,14.75,0,0,0,0,109.35Zm21.75,3.1c.4,4.28.73,8.57,1.22,12.85a57.37,57.37,0,0,0,1.11,5.79C29.93,152,40.85,176,54.78,198.63c37.07,60.17,86.4,107.22,150.11,138.57,19.61,9.65,39.85,17.46,61.92,19.38,13.45,1.17,25.36-1.89,35-11.88,8.3-8.58,16.74-17,25-25.6,9-9.28,9-17,0-26.25-6.1-6.25-12.34-12.38-18.52-18.55-8.63-8.62-17.17-17.31-25.9-25.81-6.66-6.48-14-6.54-21.06-.49-1.21,1-2.35,2.18-3.48,3.31-8.45,8.43-16.86,16.92-25.36,25.3-5.94,5.85-12.51,7.29-19.55,3.8a232.07,232.07,0,0,1-21.31-11.74c-23-14.54-42.74-32.76-60.52-53.2C118.8,201.23,107.5,186.22,99.54,169c-6.27-13.58-5.38-17.82,5.4-28.24,8.49-8.21,17-16.47,25.06-25.06,6.15-6.54,5.95-13.3.25-20.21A32.59,32.59,0,0,0,128,93Q106.13,71,84.17,49.08a22.13,22.13,0,0,0-5.32-3.91c-6.28-3.26-12.54-1.79-19,4.51-8.25,8.11-16.24,16.5-24.6,24.49A41.76,41.76,0,0,0,21.75,107.28Z"/><path class="cls-1" d="M212.05,0c8.54,2.21,17.17,4.12,25.59,6.7A197.54,197.54,0,0,1,311,47.94a203.6,203.6,0,0,1,52.78,72,200.61,200.61,0,0,1,13.94,46.86,10.6,10.6,0,0,1-20.57,5c-2.25-7.9-3.72-16-6.09-23.91-10.67-35.41-30.73-64.6-59.25-88A178.18,178.18,0,0,0,210.48,22c-8.28-1.56-12-5.4-11.75-11.71C198.92,4.89,202.38,2,206.88,0Z"/><path class="cls-1" d="M195.67,79.47a10.66,10.66,0,0,1,12.94-10.61q49.83,9.28,79.62,50.38a121.12,121.12,0,0,1,20.95,49.51c1.22,6.44-1.89,12-7.78,13.5-5.72,1.49-11.3-2.05-13.18-8.31-2.44-8.1-4.05-16.59-7.54-24.21-14.91-32.52-40.17-52.37-75.28-59.57C199.12,88.87,195.68,85,195.67,79.47Z"/></g></g></svg>