<svg xmlns="http://www.w3.org/2000/svg" xmlns:xlink="http://www.w3.org/1999/xlink" viewBox="0 0 208.05 64.16"><defs><style>.cls-1,.cls-4{fill:none;}.cls-2{fill:#fff;stroke-width:0.8px;}.cls-2,.cls-4{stroke:#c50b6f;stroke-linecap:round;stroke-miterlimit:10;}.cls-3{clip-path:url(#clip-path);}.cls-4{stroke-width:0.27px;}</style><clipPath id="clip-path" transform="translate(65.09 28.22)"><rect class="cls-1" x="0.4" y="0.4" width="25" height="25"/></clipPath></defs><g id="Capa_2" data-name="Capa 2"><g id="Capa_1-2" data-name="Capa 1"><rect class="cls-2" x="65.49" y="28.62" width="25" height="25"/><g class="cls-3"><line class="cls-4" x1="64.03" y1="0.13" x2="0.13" y2="64.03"/><line class="cls-4" x1="66.85" y1="0.13" x2="2.95" y2="64.03"/><line class="cls-4" x1="69.67" y1="0.13" x2="5.78" y2="64.03"/><line class="cls-4" x1="72.5" y1="0.13" x2="8.6" y2="64.03"/><line class="cls-4" x1="75.32" y1="0.13" x2="11.42" y2="64.03"/><line class="cls-4" x1="78.14" y1="0.13" x2="14.24" y2="64.03"/><line class="cls-4" x1="80.96" y1="0.13" x2="17.06" y2="64.03"/><line class="cls-4" x1="83.78" y1="0.13" x2="19.88" y2="64.03"/><line class="cls-4" x1="86.6" y1="0.13" x2="22.7" y2="64.03"/><line class="cls-4" x1="89.42" y1="0.13" x2="25.53" y2="64.03"/><line class="cls-4" x1="92.25" y1="0.13" x2="28.35" y2="64.03"/><line class="cls-4" x1="95.07" y1="0.13" x2="31.17" y2="64.03"/><line class="cls-4" x1="97.89" y1="0.13" x2="33.99" y2="64.03"/><line class="cls-4" x1="100.71" y1="0.13" x2="36.81" y2="64.03"/><line class="cls-4" x1="103.53" y1="0.13" x2="39.63" y2="64.03"/><line class="cls-4" x1="106.35" y1="0.13" x2="42.45" y2="64.03"/><line class="cls-4" x1="109.17" y1="0.13" x2="45.27" y2="64.03"/><line class="cls-4" x1="111.99" y1="0.13" x2="48.1" y2="64.03"/><line class="cls-4" x1="114.82" y1="0.13" x2="50.92" y2="64.03"/><line class="cls-4" x1="117.64" y1="0.13" x2="53.74" y2="64.03"/><line class="cls-4" x1="120.46" y1="0.13" x2="56.56" y2="64.03"/><line class="cls-4" x1="123.28" y1="0.13" x2="59.38" y2="64.03"/><line class="cls-4" x1="126.1" y1="0.13" x2="62.2" y2="64.03"/><line class="cls-4" x1="128.92" y1="0.13" x2="65.02" y2="64.03"/><line class="cls-4" x1="131.74" y1="0.13" x2="67.85" y2="64.03"/><line class="cls-4" x1="134.57" y1="0.13" x2="70.67" y2="64.03"/><line class="cls-4" x1="137.39" y1="0.13" x2="73.49" y2="64.03"/><line class="cls-4" x1="140.21" y1="0.13" x2="76.31" y2="64.03"/><line class="cls-4" x1="143.03" y1="0.13" x2="79.13" y2="64.03"/><line class="cls-4" x1="145.85" y1="0.13" x2="81.95" y2="64.03"/><line class="cls-4" x1="148.67" y1="0.13" x2="84.77" y2="64.03"/><line class="cls-4" x1="151.49" y1="0.13" x2="87.6" y2="64.03"/><line class="cls-4" x1="154.32" y1="0.13" x2="90.42" y2="64.03"/><line class="cls-4" x1="157.14" y1="0.13" x2="93.24" y2="64.03"/><line class="cls-4" x1="159.96" y1="0.13" x2="96.06" y2="64.03"/><line class="cls-4" x1="162.78" y1="0.13" x2="98.88" y2="64.03"/><line class="cls-4" x1="165.6" y1="0.13" x2="101.7" y2="64.03"/><line class="cls-4" x1="168.42" y1="0.13" x2="104.52" y2="64.03"/><line class="cls-4" x1="171.24" y1="0.13" x2="107.35" y2="64.03"/><line class="cls-4" x1="174.07" y1="0.13" x2="110.17" y2="64.03"/><line class="cls-4" x1="176.89" y1="0.13" x2="112.99" y2="64.03"/><line class="cls-4" x1="179.71" y1="0.13" x2="115.81" y2="64.03"/><line class="cls-4" x1="182.53" y1="0.13" x2="118.63" y2="64.03"/><line class="cls-4" x1="185.35" y1="0.13" x2="121.45" y2="64.03"/><line class="cls-4" x1="188.17" y1="0.13" x2="124.27" y2="64.03"/><line class="cls-4" x1="190.99" y1="0.13" x2="127.09" y2="64.03"/><line class="cls-4" x1="193.81" y1="0.13" x2="129.92" y2="64.03"/><line class="cls-4" x1="196.64" y1="0.13" x2="132.74" y2="64.03"/><line class="cls-4" x1="199.46" y1="0.13" x2="135.56" y2="64.03"/><line class="cls-4" x1="202.28" y1="0.13" x2="138.38" y2="64.03"/><line class="cls-4" x1="205.1" y1="0.13" x2="141.2" y2="64.03"/><line class="cls-4" x1="207.92" y1="0.13" x2="144.02" y2="64.03"/></g></g></g></svg>