<?xml version="1.0" encoding="utf-8"?>
<!-- Generator: Adobe Illustrator 24.2.3, SVG Export Plug-In . SVG Version: 6.00 Build 0)  -->
<svg version="1.1" id="Capa_1" xmlns="http://www.w3.org/2000/svg" xmlns:xlink="http://www.w3.org/1999/xlink" x="0px" y="0px"
	 viewBox="0 0 25.5 25.5" style="enable-background:new 0 0 25.5 25.5;" xml:space="preserve">
<style type="text/css">
	.st0{fill:#FFFFFF;stroke:#C50B6F;stroke-width:0.5;stroke-miterlimit:10;}
</style>
<g id="Capa_2_1_">
	<g id="Capa_1-2">
		<polygon class="st0" points="9.8,0.2 0.2,9.8 0.2,12.6 12.6,0.2 		"/>
		<polygon class="st0" points="12.6,0.2 0.2,12.6 0.2,15.4 15.4,0.2 		"/>
		<polygon class="st0" points="15.4,0.2 0.2,15.4 0.2,18.3 18.3,0.2 		"/>
		<polygon class="st0" points="18.3,0.2 0.2,18.3 0.2,21.1 21.1,0.2 		"/>
		<polygon class="st0" points="7,0.2 0.2,7 0.2,9.8 9.8,0.2 		"/>
		<polygon class="st0" points="21.1,0.2 0.2,21.1 0.2,23.9 23.9,0.2 		"/>
		<polygon class="st0" points="1.4,0.2 0.2,1.4 0.2,4.2 4.2,0.2 		"/>
		<polygon class="st0" points="0.2,0.2 0.2,1.4 1.4,0.2 		"/>
		<polygon class="st0" points="4.2,0.2 0.2,4.2 0.2,7 7,0.2 		"/>
		<polygon class="st0" points="25.2,7.4 7.4,25.2 10.2,25.2 25.2,10.2 		"/>
		<polygon class="st0" points="25.2,25.2 25.2,24.3 24.3,25.2 		"/>
		<polygon class="st0" points="25.2,0.2 23.9,0.2 0.2,23.9 0.2,25.2 1.7,25.2 25.2,1.7 		"/>
		<polygon class="st0" points="25.2,18.7 18.6,25.2 21.5,25.2 25.2,21.5 		"/>
		<polygon class="st0" points="25.2,24.3 25.2,21.5 21.5,25.2 24.3,25.2 		"/>
		<polygon class="st0" points="25.2,15.8 15.8,25.2 18.6,25.2 25.2,18.7 		"/>
		<polygon class="st0" points="25.2,1.7 1.7,25.2 4.6,25.2 25.2,4.6 		"/>
		<polygon class="st0" points="25.2,4.6 4.6,25.2 7.4,25.2 25.2,7.4 		"/>
		<polygon class="st0" points="25.2,13 13,25.2 15.8,25.2 25.2,15.8 		"/>
		<polygon class="st0" points="25.2,10.2 10.2,25.2 13,25.2 25.2,13 		"/>
	</g>
</g>
</svg>
