<svg xmlns="http://www.w3.org/2000/svg" viewBox="0 0 72 72"><defs><style>.cls-1{fill:#fff;}.cls-2{fill:#a2c232;}.cls-3{fill:#abc145;stroke:#abc145;stroke-miterlimit:10;stroke-width:1.1px;}</style></defs><g id="Capa_2" data-name="Capa 2"><g id="Capa_1-2" data-name="Capa 1"><circle class="cls-1" cx="36" cy="36" r="35"/><path class="cls-2" d="M36,72A36,36,0,1,1,72,36,36,36,0,0,1,36,72ZM36,2A34,34,0,1,0,70,36,34,34,0,0,0,36,2Z"/><path class="cls-3" d="M56.67,42.21a1,1,0,0,1-1,.46c-1.38,0-2.76,0-4.15,0h-.45v5.58h4.6a1,1,0,0,1,1,.47V56.6H21.89a3,3,0,0,1-.31-.89c0-2,0-4,0-6H16.89c-.67,0-.92-.25-.92-.91V42.15c0-.67.24-.92.91-.92h4.69V35.17c0-.7.23-.94.93-.94h1c-.15-.92.44-1.49.91-2.12L27,28.69c-.41-.31-.8-.63-1.21-.91a2.55,2.55,0,0,1-1.2-2.41,3.21,3.21,0,0,1,0-.54A1.55,1.55,0,0,0,23.79,23a11.71,11.71,0,0,1-1-.72l-.55.73a.71.71,0,0,1-1.1.18c-1.93-1.44-3.87-2.87-5.77-4.35a2.1,2.1,0,0,1-.88-1.09,1.29,1.29,0,0,1,.07-1c.27-.44.51-.9.82-1.31A2.05,2.05,0,0,1,18.31,15c1.93,1.42,3.84,2.86,5.75,4.3a.7.7,0,0,1,.15,1.11l-.55.75,1.43,1.07a2.37,2.37,0,0,1,1,2c0,.41-.09.83-.06,1.23a1.43,1.43,0,0,0,.32.88,15.15,15.15,0,0,0,1.52,1.2l.33-.42,2.71-3.62a1.63,1.63,0,0,1,3,.24l5.43,10.12a.6.6,0,0,0,.63.37l15.74,0a1.08,1.08,0,0,1,1,.43ZM25.06,33.68c-.21.28-.15.36.32.46l5.41,1.15c2.66.56,5.32,1.13,8,1.68a1.15,1.15,0,0,0,.41,0,1.4,1.4,0,0,0-.06-.41q-3.25-6.08-6.53-12.14c-.19-.37-.28-.37-.53,0-1,1.33-2,2.67-3,4l1.06.81,1.71,1.29A.73.73,0,0,1,32,31.56a.72.72,0,0,1-1.09.08l-2.79-2.1ZM39.85,48.21H49.6V42.7H39.85ZM28.64,42.69v5.53h9.75V42.69Zm26.61,7H45.49v5.54h9.76ZM44,55.26V49.71H34.24v5.55Zm-21,0h9.75V49.71H23ZM17.4,42.69v5.53h9.75V42.69ZM23,41.21h9.78V38.44c0-.41.13-.93-.07-1.19S32,37,31.6,36.92c-2-.42-3.91-.9-5.89-1.24a17.08,17.08,0,0,0-2.68,0Zm22.45,0h9.75V38.44H54.09c-.61,0-1-.27-.94-.72s.35-.69.93-.69h1.16V35.66H45.48ZM40.3,35.64c.06.13.1.24.15.34a1.66,1.66,0,0,1-1.88,2.41c-1.33-.27-2.65-.56-4-.84a2.66,2.66,0,0,0-.35,0v3.7H44V35.64ZM22.7,20.05l-2.23-1.67-2.82-2.12c-.56-.42-.86-.37-1.27.19a1.56,1.56,0,0,0-.36.63.81.81,0,0,0,.23.64c1.72,1.33,3.46,2.63,5.22,4Z"/></g></g></svg>