<svg xmlns="http://www.w3.org/2000/svg" viewBox="0 0 72 72"><defs><style>.cls-1{fill:#fff;}.cls-2{fill:#ce2d87;}.cls-3{fill:#c80e6f;stroke:#fff;stroke-miterlimit:10;stroke-width:0.65px;}</style></defs><g id="Capa_2" data-name="Capa 2"><g id="Capa_1-2" data-name="Capa 1"><circle class="cls-1" cx="36" cy="36" r="35"/><path class="cls-2" d="M36,72A36,36,0,1,1,72,36,36,36,0,0,1,36,72ZM36,2A34,34,0,1,0,70,36,34,34,0,0,0,36,2Z"/><path class="cls-3" d="M12.26,44.34a3,3,0,0,0,1.63,2.18,7.45,7.45,0,0,0,1.65.35,4.82,4.82,0,0,0,.66,0c0,.19,0,.35,0,.52,0,.77,0,1.54,0,2.31a1,1,0,0,0,1.11,1.13c1.88,0,3.77,0,5.65,0a1,1,0,0,0,1.14-1.16c0-.91,0-1.82,0-2.76H47.87v2.54c0,1.06.32,1.39,1.37,1.39h5.24c1,0,1.29-.34,1.29-1.28V46.87c.35,0,.64,0,.93,0a3,3,0,0,0,3-3.1c0-2.4,0-4.79,0-7.19,0-1.44,0-2.87,0-4.31a3,3,0,0,0-2.95-3.19,16.91,16.91,0,0,0-2.36.05,2.81,2.81,0,0,0-2.56,2.66c0,1.92,0,3.84,0,5.75,0,1.12-.31,1.43-1.44,1.43H21.61c-1.15,0-1.44-.3-1.44-1.47V32.31a3,3,0,0,0-3.23-3.24,18,18,0,0,0-2.08.06,2.8,2.8,0,0,0-2.42,1.95l-.18.47Z"/><path class="cls-3" d="M49.84,37c0-1,0-2,0-3A21.07,21.07,0,0,1,50,31.1a4.9,4.9,0,0,1,4.74-4c.34,0,.67,0,1.13,0a30,30,0,0,0-.18-3.7A2.76,2.76,0,0,0,53,21.17H19.45a3,3,0,0,0-3.14,2.33,9.68,9.68,0,0,0-.08,1.79c0,.59,0,1.17,0,1.86a10.64,10.64,0,0,1,1.6,0,4.93,4.93,0,0,1,4.34,5c0,1.42,0,2.84,0,4.26V37Z"/></g></g></svg>