<svg xmlns="http://www.w3.org/2000/svg" viewBox="0 0 72.09 72.09"><defs><style>.cls-1{fill:#fff;}.cls-2{fill:#f17327;}</style></defs><g id="Capa_2" data-name="Capa 2"><g id="Capa_1-2" data-name="Capa 1"><circle class="cls-1" cx="36.05" cy="36.04" r="35.04"/><path class="cls-2" d="M36,72.09A36,36,0,1,1,72.09,36,36.09,36.09,0,0,1,36,72.09ZM36,2A34,34,0,1,0,70.09,36,34.08,34.08,0,0,0,36,2Z"/><path class="cls-2" d="M57,36.53l-1.61,1.95c-.53.64-.95.67-1.59.14L36.45,24.17c-.12-.11-.25-.21-.41-.34L34.1,25.45,18.28,38.64a.93.93,0,0,1-1.54-.13L15.46,37a.93.93,0,0,1,.15-1.54L29.45,23.91c1.51-1.26,3-2.52,4.53-3.77a3.11,3.11,0,0,1,3.48-.42,4.29,4.29,0,0,1,.9.63L44,25.07l.33.24c0-.18,0-.31,0-.44V20.54c0-.81.28-1.08,1.08-1.08,1.49,0,3,0,4.46,0,.83,0,1.11.28,1.11,1.1q0,5,0,9.93a.76.76,0,0,0,.3.66q2.56,2.1,5.1,4.23A6.09,6.09,0,0,1,57,36Z"/><path class="cls-2" d="M39.37,52.66V42.77H32.71v9.94H23.08a1.75,1.75,0,0,1-2-2c0-4,0-7.91,0-11.86a.83.83,0,0,1,.34-.72q7.13-5.85,14.22-11.72l.41-.32,1.17,1Q44,32.66,50.74,38.24a.81.81,0,0,1,.25.55q0,6.06,0,12.14a1.65,1.65,0,0,1-1.68,1.77c-3.26,0-6.52,0-9.77,0A.85.85,0,0,1,39.37,52.66Z"/></g></g></svg>