<svg xmlns="http://www.w3.org/2000/svg" viewBox="0 0 72 72"><defs><style>.cls-1{fill:#fff;}.cls-2{fill:#0070e4;}</style></defs><g id="Capa_2" data-name="Capa 2"><g id="Capa_1-2" data-name="Capa 1"><circle class="cls-1" cx="36" cy="36" r="35"/><path class="cls-2" d="M36,72A36,36,0,1,1,72,36,36,36,0,0,1,36,72ZM36,2A34,34,0,1,0,70,36,34,34,0,0,0,36,2Z"/><path class="cls-2" d="M59.83,32.61A4.81,4.81,0,0,1,57,37a4.73,4.73,0,0,1-5.15-.68,53,53,0,0,0-5.17-3.86A20.84,20.84,0,0,0,32.53,29.9a22,22,0,0,0-11.7,5.78,7.09,7.09,0,0,1-2.43,1.51,4.72,4.72,0,0,1-5.38-2,4.51,4.51,0,0,1,.28-5.63A37,37,0,0,1,18.72,25a28.72,28.72,0,0,1,11.69-4.66,31.12,31.12,0,0,1,24.06,5.47,45.73,45.73,0,0,1,3.73,3.1A5,5,0,0,1,59.83,32.61Z"/><path class="cls-2" d="M35.38,33.53c5.46.12,9.67,1.77,13.17,5.16A4.86,4.86,0,0,1,42.11,46,10.13,10.13,0,0,0,38,43.59a8,8,0,0,0-7,1.43c-1.06.82-2,1.79-3.44,2a4.92,4.92,0,0,1-5-2.25A4.68,4.68,0,0,1,23,39.2a16.53,16.53,0,0,1,8.8-5.12C33.19,33.76,34.59,33.65,35.38,33.53Z"/><path class="cls-2" d="M40.88,51.73a4.87,4.87,0,0,1-4.83,4.92,4.89,4.89,0,1,1,4.83-4.92Z"/></g></g></svg>