<svg xmlns="http://www.w3.org/2000/svg" viewBox="0 0 88.83 118.29"><defs><style>.cls-1{fill:#fff;}</style></defs><title>homefest-white</title><g id="Capa_2" data-name="Capa 2"><g id="Capa_1-2" data-name="Capa 1"><g id="Capa_1-2-2" data-name="Capa 1-2"><path class="cls-1" d="M0,.83H11.56V16.44H26.39V.83H38V42.54H26.39V26.69H11.56V42.54H0Z"/><path class="cls-1" d="M66.31,43.37a23.22,23.22,0,0,1-8.94-1.7,22.08,22.08,0,0,1-7.09-4.61A21.51,21.51,0,0,1,45.6,30.2a21.05,21.05,0,0,1-1.69-8.4v-.11A21.22,21.22,0,0,1,50.34,6.34,22.53,22.53,0,0,1,57.49,1.7a24.3,24.3,0,0,1,17.87,0,22.1,22.1,0,0,1,7.09,4.62,21.22,21.22,0,0,1,6.38,15.25v.12A21.26,21.26,0,0,1,82.39,37a22.53,22.53,0,0,1-7.15,4.64A23.17,23.17,0,0,1,66.31,43.37ZM66.4,33a10.39,10.39,0,0,0,4.36-.9,9.86,9.86,0,0,0,3.34-2.41,11.22,11.22,0,0,0,2.15-3.55A11.91,11.91,0,0,0,77,21.8v-.11a11.85,11.85,0,0,0-.78-4.29,10.62,10.62,0,0,0-14.3-6,10.32,10.32,0,0,0-5.5,6,12.3,12.3,0,0,0-.75,4.29v.12A11.82,11.82,0,0,0,56.48,26a11,11,0,0,0,2.18,3.58A10.52,10.52,0,0,0,62,32,10.15,10.15,0,0,0,66.4,33Z"/><path class="cls-1" d="M0,46.74H12.21l10,16.14,10-16.14H44.32v41.7H32.83v-24L22.19,80.81H22L11.38,64.61V88.44H0Z"/><path class="cls-1" d="M51.71,46.74H85.19v9.83H63.09v6.31h20V72h-20v6.61h22.4v9.83H51.71Z"/><path class="cls-1" d="M22,94.16H41.08v5.59H28.52v3.58H39.9v5.18H28.52v3.76H41.25v5.59H22Z"/><path class="cls-1" d="M.08,94.16H19v5.76H6.65v4H17.86v5.45H6.65v8.47H.08Z"/><path class="cls-1" d="M42.81,114.34,46.46,110a12.23,12.23,0,0,0,7.69,2.84c1.76,0,2.71-.61,2.71-1.62v-.07c0-1-.78-1.52-4-2.27-5-1.15-8.94-2.57-8.94-7.45v-.06c0-4.4,3.49-7.59,9.18-7.59a14.94,14.94,0,0,1,9.75,3.15l-3.28,4.64a11.9,11.9,0,0,0-6.64-2.34c-1.59,0-2.37.68-2.37,1.53v.07c0,1.08.81,1.55,4.1,2.3,5.45,1.18,8.83,2.94,8.83,7.38v.07c0,4.84-3.82,7.71-9.58,7.71A16.56,16.56,0,0,1,42.81,114.34Z"/><path class="cls-1" d="M71.79,99.92H64.68V94.16H85.46v5.76H78.35v17.94H71.79Z"/><rect class="cls-1" x="22.02" y="94.16" width="6.52" height="23.7"/><rect class="cls-1" x="0.08" y="94.16" width="6.57" height="23.7"/><rect class="cls-1" x="64.68" y="94.16" width="20.79" height="5.76"/></g></g></g></svg>