<svg xmlns="http://www.w3.org/2000/svg" viewBox="0 0 147.98 59.8"><defs><style>.cls-1{fill:#9e9e9e;}.cls-2{fill:#ff4c22;}.cls-3{fill:#315788;}.cls-4{fill:#9dbb2c;}.cls-5{fill:#ba197c;}.cls-6{fill:#e1765f;}.cls-7{fill:#1d92d0;}.cls-8{fill:#c45599;}</style></defs><g id="Capa_2" data-name="Capa 2"><g id="Capa_1-2" data-name="Capa 1"><path class="cls-1" d="M0,1.37H9.46V14.14H21.6V1.37h9.46V35.5H21.6v-13H9.46v13H0Z"/><path class="cls-1" d="M54.27,35.5A18.89,18.89,0,0,1,47,34.11a18.08,18.08,0,0,1-5.8-3.78,17.22,17.22,0,0,1-3.83-5.61,17,17,0,0,1-1.39-6.87v-.1A17.44,17.44,0,0,1,41.2,5.19a18.4,18.4,0,0,1,5.86-3.8,19.94,19.94,0,0,1,14.63,0,18.19,18.19,0,0,1,5.8,3.78,17.53,17.53,0,0,1,3.83,5.61,17.21,17.21,0,0,1,1.39,6.87v.1a17.4,17.4,0,0,1-5.27,12.56,18.47,18.47,0,0,1-5.85,3.8A18.94,18.94,0,0,1,54.27,35.5ZM54.35,27a8.54,8.54,0,0,0,3.57-.74,8.11,8.11,0,0,0,2.73-2,9.16,9.16,0,0,0,1.76-2.9,9.63,9.63,0,0,0,.64-3.51v-.1a9.55,9.55,0,0,0-.64-3.51,9,9,0,0,0-1.8-2.93,9.08,9.08,0,0,0-2.79-2,8.58,8.58,0,0,0-9.86,2,8.81,8.81,0,0,0-1.76,2.9,10.28,10.28,0,0,0-.61,3.51v.1a9.55,9.55,0,0,0,.64,3.51A9.28,9.28,0,0,0,48,24.19a8.65,8.65,0,0,0,2.77,2A8.33,8.33,0,0,0,54.35,27Z"/><path class="cls-1" d="M78,1.37H88l8.14,13.21,8.14-13.21h10V35.5h-9.41V15.9L96.16,29.26H96L87.31,16V35.5H78Z"/><path class="cls-1" d="M120.33,1.37h27.4v8H129.64v5.17H146V22H129.64v5.41H148V35.5H120.33Z"/><path class="cls-2" d="M58,40.07H73.63v4.57H63.35v2.94h9.31v4.24H63.35V54.9H73.76v4.57H58Z"/><path class="cls-3" d="M40.07,40.07H55.59v4.71H45.44v3.3h9.18v4.46H45.44v6.93H40.07Z"/><path class="cls-4" d="M75,56.59,78,53a10,10,0,0,0,6.29,2.33c1.44,0,2.22-.5,2.22-1.33V54c0-.8-.64-1.24-3.27-1.85C79.14,51.16,76,50,76,46v0c0-3.61,2.86-6.21,7.51-6.21a12.19,12.19,0,0,1,8,2.58l-2.68,3.79a9.82,9.82,0,0,0-5.44-1.91c-1.3,0-1.94.55-1.94,1.25v0c0,.89.67,1.28,3.36,1.89,4.46,1,7.23,2.41,7.23,6v0c0,4-3.13,6.32-7.84,6.32A13.55,13.55,0,0,1,75,56.59Z"/><path class="cls-5" d="M98.76,44.78H92.94V40.07h17v4.71h-5.82V59.47H98.76Z"/><rect class="cls-6" x="58.02" y="40.07" width="5.34" height="19.4"/><rect class="cls-7" x="40.07" y="40.07" width="5.38" height="19.4"/><rect class="cls-8" x="92.94" y="40.07" width="17.01" height="4.71"/></g></g></svg>