<svg xmlns="http://www.w3.org/2000/svg" viewBox="0 0 97.64 130"><defs><style>.cls-1{fill:#9e9e9e;}.cls-2{fill:#ff4c22;}.cls-3{fill:#315789;}.cls-4{fill:#9ebc2c;}.cls-5{fill:#bb197c;}.cls-6{fill:#e2765f;}.cls-7{fill:#1d93d1;}.cls-8{fill:#c5559a;}</style></defs><g id="Capa_2" data-name="Capa 2"><g id="Capa_1-2" data-name="Capa 1"><path class="cls-1" d="M0,.92H12.7V18.07H29V.92H41.72V46.76H29V29.34H12.7V46.76H0Z"/><path class="cls-1" d="M72.89,47.67a25.61,25.61,0,0,1-9.83-1.86,24.27,24.27,0,0,1-7.79-5.08,23.44,23.44,0,0,1-5.14-7.53A23.11,23.11,0,0,1,48.26,24v-.13A23.39,23.39,0,0,1,55.34,7a24.53,24.53,0,0,1,7.85-5.1,26.75,26.75,0,0,1,19.65,0,24.08,24.08,0,0,1,7.79,5.07,23.28,23.28,0,0,1,5.14,7.53,23,23,0,0,1,1.87,9.24v.13A23.43,23.43,0,0,1,90.57,40.7a24.88,24.88,0,0,1-7.86,5.11A25.55,25.55,0,0,1,72.89,47.67ZM73,36.21a11.45,11.45,0,0,0,4.8-1,11.09,11.09,0,0,0,3.68-2.65,12.37,12.37,0,0,0,2.36-3.9A13,13,0,0,0,84.67,24v-.13a13.08,13.08,0,0,0-.85-4.72,12.23,12.23,0,0,0-2.43-3.93,11.94,11.94,0,0,0-3.74-2.71,11.16,11.16,0,0,0-4.8-1,11.32,11.32,0,0,0-4.76,1,11.37,11.37,0,0,0-6,6.55,13.5,13.5,0,0,0-.82,4.72v.13a13,13,0,0,0,.85,4.71,12.29,12.29,0,0,0,2.4,3.93,11.61,11.61,0,0,0,3.71,2.72A11.11,11.11,0,0,0,73,36.21Z"/><path class="cls-1" d="M0,51.37H13.42L24.36,69.12,35.3,51.37H48.72V97.21H36.08V70.89L24.39,88.83h-.26L12.51,71V97.21H0Z"/><path class="cls-1" d="M56.84,51.37H93.65V62.18H69.35v6.94h22v10h-22v7.27H94v10.8H56.84Z"/><path class="cls-2" d="M24.21,103.5H45.16v6.14H31.35v4H43.86v5.69H31.35v4.13h14v6.14H24.21Z"/><path class="cls-3" d="M.09,103.5H20.93v6.33H7.31v4.43H19.63v6H7.31v9.3H.09Z"/><path class="cls-4" d="M47.06,125.68l4-4.8A13.42,13.42,0,0,0,59.52,124c1.94,0,3-.67,3-1.79v-.07c0-1.08-.86-1.68-4.39-2.5-5.55-1.26-9.83-2.82-9.83-8.18v-.08c0-4.83,3.84-8.33,10.09-8.33a16.4,16.4,0,0,1,10.72,3.46l-3.61,5.1a13.06,13.06,0,0,0-7.3-2.57c-1.75,0-2.6.74-2.6,1.67v.08c0,1.19.89,1.71,4.5,2.53,6,1.3,9.71,3.24,9.71,8.11v.08c0,5.32-4.2,8.48-10.53,8.48A18.17,18.17,0,0,1,47.06,125.68Z"/><path class="cls-5" d="M78.91,109.83H71.09V103.5H93.94v6.33H86.13v19.72H78.91Z"/><rect class="cls-6" x="24.21" y="103.5" width="7.17" height="26.05"/><rect class="cls-7" x="0.09" y="103.5" width="7.22" height="26.05"/><rect class="cls-8" x="71.09" y="103.5" width="22.85" height="6.33"/></g></g></svg>