<svg xmlns="http://www.w3.org/2000/svg" viewBox="0 0 137.35 24.66"><defs><style>.cls-1{fill:#fff;}</style></defs><g id="Capa_2" data-name="Capa 2"><g id="Capa_1-2" data-name="Capa 1"><path class="cls-1" d="M17.07,11.35a3.81,3.81,0,0,0-1.41-.89,5.17,5.17,0,0,0-1.79-.3,5.25,5.25,0,0,0-2.69.61A4.47,4.47,0,0,0,9.5,12.58a.09.09,0,0,1-.1.05.1.1,0,0,1-.07-.09V10.16H6v14.5H9.5V16.55c0-2.24,1-3.37,2.92-3.37a2.47,2.47,0,0,1,1.89.61,3.49,3.49,0,0,1,.55,2.3v8.57h3.49V14.84a5.48,5.48,0,0,0-.34-2A4.42,4.42,0,0,0,17.07,11.35Z"/><path class="cls-1" d="M26.56,9.07H24.3A.09.09,0,0,1,24.21,9a4.78,4.78,0,0,1,.1-1.08,1.57,1.57,0,0,1,.37-.74,1.45,1.45,0,0,1,.73-.4,4.51,4.51,0,0,1,1.07-.11V3.7C22.66,3.73,20.8,5.45,20.8,9a.09.09,0,0,1-.09.09H18.76v2.56h1.95a.1.1,0,0,1,.09.1V24.66h3.41V11.73a.1.1,0,0,1,.09-.1h2.26Z"/><path class="cls-1" d="M39.86,14.41a6.08,6.08,0,0,0-3.55-3.73,7.47,7.47,0,0,0-2.88-.52,7.71,7.71,0,0,0-2.92.52,6.15,6.15,0,0,0-2.19,1.46,6.34,6.34,0,0,0-1.4,2.29,8.87,8.87,0,0,0-.49,3,8.78,8.78,0,0,0,.48,2.95,6.4,6.4,0,0,0,1.36,2.29,6.28,6.28,0,0,0,2.2,1.48,7.85,7.85,0,0,0,3,.53,7.76,7.76,0,0,0,2.87-.52,6.11,6.11,0,0,0,2.18-1.46,6.63,6.63,0,0,0,1.38-2.28,8.8,8.8,0,0,0,.49-3A8.86,8.86,0,0,0,39.86,14.41Zm-6.43,7.33c-2.27,0-3.42-1.45-3.42-4.33s1.15-4.31,3.42-4.31,3.43,1.45,3.43,4.31S35.71,21.74,33.43,21.74Z"/><rect class="cls-1" y="3.58" width="3.46" height="21.08"/><path class="cls-1" d="M90.45,24.65a6.31,6.31,0,0,0,2.43-.43,4.29,4.29,0,0,0,1.67-1.15.1.1,0,0,1,.1,0,.08.08,0,0,1,.06.08,10.58,10.58,0,0,0,.21,1.51h3.23V15.56a8.22,8.22,0,0,0-.31-2.31,4,4,0,0,0-1-1.69,4.41,4.41,0,0,0-1.79-1,9,9,0,0,0-2.73-.36,9.34,9.34,0,0,0-2.77.35,4.83,4.83,0,0,0-1.83,1,3.8,3.8,0,0,0-1,1.52,6.21,6.21,0,0,0-.34,1.87h3.21a2.78,2.78,0,0,1,.7-1.47,2.51,2.51,0,0,1,1.88-.6,3.37,3.37,0,0,1,1.74.4,1.26,1.26,0,0,1,.67,1.14,1.29,1.29,0,0,1-.51,1.13A4.89,4.89,0,0,1,92.2,16c-.91.13-1.76.28-2.53.44a6.12,6.12,0,0,0-2,.73,3.47,3.47,0,0,0-1.29,1.37A5.05,5.05,0,0,0,86,20.92,3.59,3.59,0,0,0,87,23.62,4.84,4.84,0,0,0,90.45,24.65ZM90,19.09a5.29,5.29,0,0,1,2.19-.81,15,15,0,0,0,1.53-.36,2,2,0,0,0,.78-.43.08.08,0,0,1,.1,0,.09.09,0,0,1,.06.08l0,1.53a2.69,2.69,0,0,1-.28,1.21,3.51,3.51,0,0,1-.71,1,3.32,3.32,0,0,1-1.07.66,3.47,3.47,0,0,1-1.34.25c-1.23,0-1.85-.55-1.85-1.64A1.77,1.77,0,0,1,90,19.09Z"/><path class="cls-1" d="M56.08,5.72a7.39,7.39,0,0,0-2.41-1.5,8.62,8.62,0,0,0-3.12-.54A8.43,8.43,0,0,0,47,4.41a7.43,7.43,0,0,0-2.7,2.11,9.82,9.82,0,0,0-1.71,3.37,16,16,0,0,0-.6,4.5,13.69,13.69,0,0,0,.66,4.46,9.31,9.31,0,0,0,1.79,3.21A7.2,7.2,0,0,0,47.13,24a8.75,8.75,0,0,0,3.36.65,7.93,7.93,0,0,0,2.94-.53,7.11,7.11,0,0,0,2.34-1.5,8.3,8.3,0,0,0,1.67-2.33,11.74,11.74,0,0,0,1-2.95H54.69a5.41,5.41,0,0,1-1.46,2.86,4,4,0,0,1-2.85,1,3.84,3.84,0,0,1-3.48-1.87,10,10,0,0,1-1.15-5.2A9.9,9.9,0,0,1,46.91,9a4,4,0,0,1,3.67-1.91,3.93,3.93,0,0,1,2.58,1,4.78,4.78,0,0,1,1.53,2.62h3.72A8.58,8.58,0,0,0,57.68,8,7.25,7.25,0,0,0,56.08,5.72Z"/><path class="cls-1" d="M63.61,24.65A6.26,6.26,0,0,0,66,24.22a4.33,4.33,0,0,0,1.68-1.15.09.09,0,0,1,.1,0,.09.09,0,0,1,.06.08,10.64,10.64,0,0,0,.2,1.51H71.3V15.56a8.24,8.24,0,0,0-.3-2.31,4,4,0,0,0-1-1.69,4.31,4.31,0,0,0-1.78-1,9,9,0,0,0-2.73-.36,9.25,9.25,0,0,0-2.77.35,4.76,4.76,0,0,0-1.83,1,3.7,3.7,0,0,0-1,1.52,6.21,6.21,0,0,0-.35,1.87h3.22a2.71,2.71,0,0,1,.7-1.47,2.5,2.5,0,0,1,1.87-.6,3.41,3.41,0,0,1,1.75.4,1.39,1.39,0,0,1,.16,2.27,5,5,0,0,1-1.89.54c-.91.13-1.77.28-2.53.44a6.18,6.18,0,0,0-2,.73,3.52,3.52,0,0,0-1.28,1.37,5,5,0,0,0-.47,2.36,3.62,3.62,0,0,0,1.08,2.7A4.88,4.88,0,0,0,63.61,24.65Zm-.43-5.56a5.41,5.41,0,0,1,2.2-.81,15.65,15.65,0,0,0,1.53-.36,2,2,0,0,0,.78-.43.08.08,0,0,1,.1,0,.08.08,0,0,1,0,.08l0,1.53a2.82,2.82,0,0,1-.28,1.21,3.36,3.36,0,0,1-.72,1,3.28,3.28,0,0,1-1.06.66,3.47,3.47,0,0,1-1.34.25c-1.23,0-1.86-.55-1.86-1.64A1.8,1.8,0,0,1,63.18,19.09Z"/><path class="cls-1" d="M72.61,20a4.34,4.34,0,0,0,1.71,3.33,7.61,7.61,0,0,0,4.83,1.34,7.06,7.06,0,0,0,4.44-1.19,4.08,4.08,0,0,0,1.5-3.34A3.45,3.45,0,0,0,84.52,18a3.89,3.89,0,0,0-1.65-1.21A16,16,0,0,0,81,16.26l-2.25-.61a7.68,7.68,0,0,1-1.7-.65,1.12,1.12,0,0,1-.6-1,1,1,0,0,1,.61-1,3.78,3.78,0,0,1,1.64-.28,3.34,3.34,0,0,1,1.9.43,2,2,0,0,1,.75,1.41h3.33a4.46,4.46,0,0,0-1.52-3.27,6.82,6.82,0,0,0-4.35-1.14,10.13,10.13,0,0,0-2.65.3,5.18,5.18,0,0,0-1.78.85,3.17,3.17,0,0,0-1,1.28,4.31,4.31,0,0,0-.3,1.61,3.88,3.88,0,0,0,.37,1.7,3.47,3.47,0,0,0,1.33,1.38,7.5,7.5,0,0,0,1.77.81c.7.22,1.64.48,2.79.76a9.07,9.07,0,0,1,1.58.54,1.18,1.18,0,0,1,.71,1.13,1.23,1.23,0,0,1-.79,1.2,4.25,4.25,0,0,1-1.74.33A3.75,3.75,0,0,1,77,21.5,1.85,1.85,0,0,1,76.18,20Z"/><path class="cls-1" d="M101.16,23.31A7.61,7.61,0,0,0,106,24.65a7.08,7.08,0,0,0,4.44-1.19,4.08,4.08,0,0,0,1.5-3.34,3.38,3.38,0,0,0-.58-2.08,3.85,3.85,0,0,0-1.64-1.21,16,16,0,0,0-1.86-.57l-2.25-.61a7.68,7.68,0,0,1-1.7-.65,1.12,1.12,0,0,1-.6-1,1,1,0,0,1,.61-1,3.76,3.76,0,0,1,1.63-.28,3.35,3.35,0,0,1,1.91.43,2,2,0,0,1,.75,1.41h3.33A4.48,4.48,0,0,0,110,11.3a6.82,6.82,0,0,0-4.35-1.14,10.08,10.08,0,0,0-2.65.3,5.18,5.18,0,0,0-1.78.85,3.17,3.17,0,0,0-1,1.28,4.31,4.31,0,0,0-.3,1.61,3.88,3.88,0,0,0,.37,1.7,3.47,3.47,0,0,0,1.33,1.38,7.5,7.5,0,0,0,1.77.81c.7.22,1.64.48,2.79.76a9.24,9.24,0,0,1,1.57.54,1.16,1.16,0,0,1,.71,1.13,1.22,1.22,0,0,1-.78,1.2,4.25,4.25,0,0,1-1.74.33,3.75,3.75,0,0,1-2.16-.55A1.85,1.85,0,0,1,103,20H99.45A4.34,4.34,0,0,0,101.16,23.31Z"/><path class="cls-1" d="M136.7,7.89,127.48.4a1.76,1.76,0,0,0-2.23,0L116,7.89a1.78,1.78,0,0,0-.65,1.37V22.84a1.76,1.76,0,0,0,1.76,1.77h18.54l-5.49-6.15a6.51,6.51,0,0,1-3.83,1.23,6.58,6.58,0,1,1,5-2.29l5.7,6.39a1.68,1.68,0,0,0,.28-.94V9.26A1.78,1.78,0,0,0,136.7,7.89Z"/><circle class="cls-1" cx="126.37" cy="13.09" r="5.26"/></g></g></svg>