<svg xmlns="http://www.w3.org/2000/svg" viewBox="0 0 24.99 25"><defs><style>.cls-1{fill:#fff;}</style></defs><g id="Capa_2" data-name="Capa 2"><g id="Capa_1-2" data-name="Capa 1"><path class="cls-1" d="M25,6.3V18.69c0,.09,0,.17,0,.26a5.7,5.7,0,0,1-.52,1.95A6.62,6.62,0,0,1,18.17,25c-3.78,0-7.56,0-11.34,0a6.48,6.48,0,0,1-3.34-.86A6.67,6.67,0,0,1,0,18.1c0-3.74,0-7.47,0-11.2A6.67,6.67,0,0,1,.14,5.49a6.63,6.63,0,0,1,5-5.28A11.58,11.58,0,0,1,6.3,0H18.7c.26,0,.53.07.79.12a6.69,6.69,0,0,1,5.3,5A10.61,10.61,0,0,1,25,6.3Zm-1.46,6.19c0-1.86,0-3.72,0-5.58a5.91,5.91,0,0,0-.12-1.26,5.27,5.27,0,0,0-5.27-4.18q-5.62,0-11.27,0a5.52,5.52,0,0,0-1.21.12A5.28,5.28,0,0,0,1.47,6.86c0,3.76,0,7.51,0,11.27a5.92,5.92,0,0,0,.11,1.19,5.29,5.29,0,0,0,5.23,4.2c3.79,0,7.58,0,11.36,0a5,5,0,0,0,2.2-.46,5.21,5.21,0,0,0,3.14-4.93C23.55,16.25,23.53,14.37,23.53,12.49Z"/><path class="cls-1" d="M12.51,5.66a6.84,6.84,0,1,1-6.84,6.82A6.86,6.86,0,0,1,12.51,5.66Zm0,1.47a5.37,5.37,0,1,0,5.38,5.36A5.38,5.38,0,0,0,12.49,7.13Z"/><path class="cls-1" d="M17.48,5.23a2,2,0,1,1,2,2A2,2,0,0,1,17.48,5.23Zm2.56,0a.57.57,0,0,0-.54-.56.56.56,0,0,0-.55.54.55.55,0,1,0,1.09,0Z"/></g></g></svg>