<svg xmlns="http://www.w3.org/2000/svg" viewBox="0 0 280.95 36.01"><defs><style>.cls-1{fill:#9e9e9e;}.cls-2{fill:#ff4c22;}.cls-3{fill:#315786;}.cls-4{fill:#9bb92c;}.cls-5{fill:#b8197b;}.cls-6{fill:#df755f;}.cls-7{fill:#1e90ce;}.cls-8{fill:#c25597;}</style></defs><g id="Capa_2" data-name="Capa 2"><g id="Capa_1-2" data-name="Capa 1"><path class="cls-1" d="M0,1.37H9.46V14.14H21.6V1.37h9.46V35.5H21.6v-13H9.46v13H0Z"/><path class="cls-1" d="M54.27,35.5A18.89,18.89,0,0,1,47,34.11a18.08,18.08,0,0,1-5.8-3.78,17.22,17.22,0,0,1-3.83-5.61,17,17,0,0,1-1.39-6.87v-.1A17.44,17.44,0,0,1,41.2,5.19a18.4,18.4,0,0,1,5.86-3.8,19.94,19.94,0,0,1,14.63,0,18.19,18.19,0,0,1,5.8,3.78,17.53,17.53,0,0,1,3.83,5.61,17.21,17.21,0,0,1,1.39,6.87v.1a17.4,17.4,0,0,1-5.27,12.56,18.47,18.47,0,0,1-5.85,3.8A18.94,18.94,0,0,1,54.27,35.5ZM54.35,27a8.54,8.54,0,0,0,3.57-.74,8.11,8.11,0,0,0,2.73-2,9.16,9.16,0,0,0,1.76-2.9,9.63,9.63,0,0,0,.64-3.51v-.1a9.55,9.55,0,0,0-.64-3.51,9,9,0,0,0-1.8-2.93,9.08,9.08,0,0,0-2.79-2,8.58,8.58,0,0,0-9.86,2,8.81,8.81,0,0,0-1.76,2.9,10.28,10.28,0,0,0-.61,3.51v.1a9.55,9.55,0,0,0,.64,3.51A9.28,9.28,0,0,0,48,24.19a8.65,8.65,0,0,0,2.77,2A8.33,8.33,0,0,0,54.35,27Z"/><path class="cls-1" d="M78,1.37H88l8.14,13.21,8.14-13.21h10V35.5h-9.41V15.9L96.16,29.26H96L87.31,16V35.5H78Z"/><path class="cls-1" d="M120.33,1.37h27.4v8H129.64v5.17H146V22H129.64v5.41H148V35.5H120.33Z"/><path class="cls-2" d="M186.64,1.32h27.44v8H196v5.17h16.37V22H196v5.41h18.32v8H186.64Z"/><path class="cls-3" d="M154.07,1.32h27.29V9.6H163.52v5.8h16.13v7.84H163.52V35.42h-9.45Z"/><path class="cls-4" d="M218.56,30.35l5.26-6.28a17.57,17.57,0,0,0,11.06,4.09c2.54,0,3.9-.87,3.9-2.34v-.09c0-1.42-1.12-2.2-5.75-3.27-7.26-1.66-12.86-3.7-12.86-10.72v-.1c0-6.33,5-10.91,13.2-10.91,5.8,0,10.33,1.56,14,4.53l-4.72,6.68a17.07,17.07,0,0,0-9.55-3.37c-2.29,0-3.41,1-3.41,2.2v.1c0,1.55,1.17,2.24,5.89,3.31,7.85,1.7,12.72,4.24,12.72,10.62v.1c0,7-5.51,11.11-13.79,11.11A23.79,23.79,0,0,1,218.56,30.35Z"/><path class="cls-5" d="M261.27,9.6H251V1.32H281V9.6H270.72V35.42h-9.45Z"/><rect class="cls-6" x="186.64" y="1.32" width="9.39" height="34.11"/><rect class="cls-7" x="154.07" y="1.32" width="9.45" height="34.11"/><rect class="cls-8" x="251.03" y="1.32" width="29.92" height="8.28"/></g></g></svg>