<svg xmlns="http://www.w3.org/2000/svg" viewBox="0 0 24.5 24.5"><defs><style>.cls-1{fill:#fff;}</style></defs><g id="Capa_2" data-name="Capa 2"><g id="Capa_1-2" data-name="Capa 1"><path class="cls-1" d="M0,23.21l1.71-4.86a3.32,3.32,0,0,0,.31-1,2.93,2.93,0,0,0-.36-.92,11.55,11.55,0,0,1,.43-10A11.35,11.35,0,0,1,10.56.2,11.49,11.49,0,0,1,21.34,3.82a11.23,11.23,0,0,1,3.07,6.63,11.51,11.51,0,0,1-2.51,8.84,11.52,11.52,0,0,1-7.3,4.3,11.6,11.6,0,0,1-7.21-1.05.55.55,0,0,0-.45,0L1.39,24.46l0,0H.86A1.31,1.31,0,0,1,0,23.59Zm1.66-.37.26-.08c1.6-.56,3.19-1.11,4.78-1.68a1.34,1.34,0,0,1,1.11.07l.34.17a10.2,10.2,0,0,0,4.54,1,10,10,0,0,0,6.83-2.61A10.15,10.15,0,0,0,23,10.36a9.75,9.75,0,0,0-2.88-5.79,10.13,10.13,0,0,0-9.55-2.91,10.06,10.06,0,0,0-7,5.18,10.08,10.08,0,0,0-1.19,6.52,10.09,10.09,0,0,0,1,3.26,1.44,1.44,0,0,1,.08,1.26c-.14.33-.25.68-.36,1C2.58,20.19,2.13,21.49,1.66,22.84Z"/><path class="cls-1" d="M14.49,13.55c.16-.18.32-.37.5-.54a1.41,1.41,0,0,1,2.12,0l1.47,1.48a1.41,1.41,0,0,1,0,2.12c-.34.34-.7.67-1,1a2.4,2.4,0,0,1-2.35.71,8.4,8.4,0,0,1-3.5-1.63,16.32,16.32,0,0,1-4.54-4.86,7.23,7.23,0,0,1-1-2.57,2.42,2.42,0,0,1,.72-2.35c.36-.32.68-.68,1-1a1.42,1.42,0,0,1,2.14,0l1.45,1.46a1.39,1.39,0,0,1,0,2.13L11,10A8.72,8.72,0,0,0,14.49,13.55ZM16,14c-.2.21-.41.44-.63.66a1.12,1.12,0,0,1-1.49.21,10.15,10.15,0,0,1-4.24-4.22A1.15,1.15,0,0,1,9.87,9.1l.62-.59L8.92,6.93c-.34.34-.69.72-1.06,1.06a1,1,0,0,0-.32.91,4.83,4.83,0,0,0,.63,1.81,14.65,14.65,0,0,0,4.94,5.23,6.42,6.42,0,0,0,2.22,1,1.15,1.15,0,0,0,1.29-.38,3.48,3.48,0,0,1,.38-.39l.61-.56Z"/></g></g></svg>